<svg width="125" height="100" viewBox="0 0 125 100" fill="none" xmlns="http://www.w3.org/2000/svg">
<rect y="100" width="100" height="125" rx="8" transform="rotate(-90 0 100)" fill="#519188"/>
<ellipse cx="25.625" cy="90" rx="4" ry="3.75" transform="rotate(-90 25.625 90)" fill="#F4DBC9"/>
<ellipse cx="38.125" cy="90" rx="4" ry="3.75" transform="rotate(-90 38.125 90)" fill="#F4DBC9"/>
<ellipse cx="50.625" cy="90" rx="4" ry="3.75" transform="rotate(-90 50.625 90)" fill="#F4DBC9"/>
<ellipse cx="63.125" cy="90" rx="4" ry="3.75" transform="rotate(-90 63.125 90)" fill="#F4DBC9"/>
<ellipse cx="75.625" cy="90" rx="4" ry="3.75" transform="rotate(-90 75.625 90)" fill="#F4DBC9"/>
<ellipse cx="88.125" cy="90" rx="4" ry="3.75" transform="rotate(-90 88.125 90)" fill="#F4DBC9"/>
<ellipse cx="100.625" cy="90" rx="4" ry="3.75" transform="rotate(-90 100.625 90)" fill="#F4DBC9"/>
<ellipse cx="13.125" cy="76.6667" rx="4" ry="3.75" transform="rotate(-90 13.125 76.6667)" fill="#F4DBC9"/>
<ellipse cx="25.625" cy="76.6667" rx="4" ry="3.75" transform="rotate(-90 25.625 76.6667)" fill="#F4DBC9"/>
<ellipse cx="38.125" cy="76.6667" rx="4" ry="3.75" transform="rotate(-90 38.125 76.6667)" fill="#F4DBC9"/>
<ellipse cx="88.125" cy="76.6667" rx="4" ry="3.75" transform="rotate(-90 88.125 76.6667)" fill="#F4DBC9"/>
<ellipse cx="100.625" cy="76.6667" rx="4" ry="3.75" transform="rotate(-90 100.625 76.6667)" fill="#F4DBC9"/>
<ellipse cx="113.125" cy="76.6667" rx="4" ry="3.75" transform="rotate(-90 113.125 76.6667)" fill="#F4DBC9"/>
<ellipse cx="13.125" cy="63.3333" rx="4" ry="3.75" transform="rotate(-90 13.125 63.3333)" fill="#F4DBC9"/>
<ellipse cx="25.625" cy="63.3333" rx="4" ry="3.75" transform="rotate(-90 25.625 63.3333)" fill="#F4DBC9"/>
<ellipse cx="100.625" cy="63.3333" rx="4" ry="3.75" transform="rotate(-90 100.625 63.3333)" fill="#F4DBC9"/>
<ellipse cx="113.125" cy="63.3333" rx="4" ry="3.75" transform="rotate(-90 113.125 63.3333)" fill="#F4DBC9"/>
<ellipse cx="13.125" cy="50" rx="4" ry="3.75" transform="rotate(-90 13.125 50)" fill="#F4DBC9"/>
<ellipse cx="113.125" cy="50" rx="4" ry="3.75" transform="rotate(-90 113.125 50)" fill="#F4DBC9"/>
<ellipse cx="13.125" cy="36.6667" rx="4" ry="3.75" transform="rotate(-90 13.125 36.6667)" fill="#F4DBC9"/>
<ellipse cx="25.625" cy="36.6667" rx="4" ry="3.75" transform="rotate(-90 25.625 36.6667)" fill="#F4DBC9"/>
<ellipse cx="100.625" cy="36.6667" rx="4" ry="3.75" transform="rotate(-90 100.625 36.6667)" fill="#F4DBC9"/>
<ellipse cx="113.125" cy="36.6667" rx="4" ry="3.75" transform="rotate(-90 113.125 36.6667)" fill="#F4DBC9"/>
<ellipse cx="13.125" cy="23.3333" rx="4" ry="3.75" transform="rotate(-90 13.125 23.3333)" fill="#F4DBC9"/>
<ellipse cx="25.625" cy="23.3333" rx="4" ry="3.75" transform="rotate(-90 25.625 23.3333)" fill="#F4DBC9"/>
<ellipse cx="38.125" cy="23.3333" rx="4" ry="3.75" transform="rotate(-90 38.125 23.3333)" fill="#F4DBC9"/>
<ellipse cx="88.125" cy="23.3333" rx="4" ry="3.75" transform="rotate(-90 88.125 23.3333)" fill="#F4DBC9"/>
<ellipse cx="100.625" cy="23.3333" rx="4" ry="3.75" transform="rotate(-90 100.625 23.3333)" fill="#F4DBC9"/>
<ellipse cx="113.125" cy="23.3333" rx="4" ry="3.75" transform="rotate(-90 113.125 23.3333)" fill="#F4DBC9"/>
<ellipse cx="25.625" cy="10" rx="4" ry="3.75" transform="rotate(-90 25.625 10)" fill="#F4DBC9"/>
<ellipse cx="38.125" cy="10" rx="4" ry="3.75" transform="rotate(-90 38.125 10)" fill="#F4DBC9"/>
<ellipse cx="50.625" cy="10" rx="4" ry="3.75" transform="rotate(-90 50.625 10)" fill="#F4DBC9"/>
<ellipse cx="63.125" cy="10" rx="4" ry="3.75" transform="rotate(-90 63.125 10)" fill="#F4DBC9"/>
<ellipse cx="75.625" cy="10" rx="4" ry="3.75" transform="rotate(-90 75.625 10)" fill="#F4DBC9"/>
<ellipse cx="88.125" cy="10" rx="4" ry="3.75" transform="rotate(-90 88.125 10)" fill="#F4DBC9"/>
<ellipse cx="100.625" cy="10" rx="4" ry="3.75" transform="rotate(-90 100.625 10)" fill="#F4DBC9"/>
<path d="M59.9318 60.1818V59.9773C59.9545 57.8068 60.1818 56.0795 60.6136 54.7955C61.0455 53.5114 61.6591 52.4716 62.4545 51.6761C63.25 50.8807 64.2045 50.1477 65.3182 49.4773C65.9886 49.0682 66.5909 48.5852 67.125 48.0284C67.6591 47.4602 68.0795 46.8068 68.3864 46.0682C68.7045 45.3295 68.8636 44.5114 68.8636 43.6136C68.8636 42.5 68.6023 41.5341 68.0795 40.7159C67.5568 39.8977 66.858 39.267 65.983 38.8239C65.108 38.3807 64.1364 38.1591 63.0682 38.1591C62.1364 38.1591 61.2386 38.3523 60.375 38.7386C59.5114 39.125 58.7898 39.733 58.2102 40.5625C57.6307 41.392 57.2955 42.4773 57.2045 43.8182H52.9091C53 41.8864 53.5 40.233 54.4091 38.858C55.3295 37.483 56.5398 36.4318 58.0398 35.7045C59.5511 34.9773 61.2273 34.6136 63.0682 34.6136C65.0682 34.6136 66.8068 35.0114 68.2841 35.8068C69.7727 36.6023 70.9205 37.6932 71.7273 39.0795C72.5455 40.4659 72.9545 42.0455 72.9545 43.8182C72.9545 45.0682 72.7614 46.1989 72.375 47.2102C72 48.2216 71.4545 49.125 70.7386 49.9205C70.0341 50.7159 69.1818 51.4205 68.1818 52.0341C67.1818 52.6591 66.3807 53.3182 65.7784 54.0114C65.1761 54.6932 64.7386 55.5057 64.4659 56.4489C64.1932 57.392 64.0455 58.5682 64.0227 59.9773V60.1818H59.9318ZM62.1136 70.2727C61.2727 70.2727 60.5511 69.9716 59.9489 69.3693C59.3466 68.767 59.0455 68.0455 59.0455 67.2045C59.0455 66.3636 59.3466 65.642 59.9489 65.0398C60.5511 64.4375 61.2727 64.1364 62.1136 64.1364C62.9545 64.1364 63.6761 64.4375 64.2784 65.0398C64.8807 65.642 65.1818 66.3636 65.1818 67.2045C65.1818 67.7614 65.0398 68.2727 64.7557 68.7386C64.483 69.2045 64.1136 69.5795 63.6477 69.8636C63.1932 70.1364 62.6818 70.2727 62.1136 70.2727Z" fill="#F4DBC9"/>
</svg>
