<svg width="1920" height="940" viewBox="0 0 1920 940" fill="none" xmlns="http://www.w3.org/2000/svg">
<path fill-rule="evenodd" clip-rule="evenodd" d="M1920 0H0V940H1920V0ZM1111.5 72.7683C1058.93 96.3911 1004.36 120.911 945.936 121.683C887.059 122.461 833.964 101.715 781.716 81.2997C722.129 58.0168 663.645 35.1649 598.947 45.1646C514.271 58.2519 477.529 108.917 442.008 157.899C430.04 174.401 418.212 190.712 404.736 205.33C376.041 236.456 358.526 269.316 340.899 302.385C330.011 322.81 319.081 343.314 305.449 363.538C291.387 384.4 265.582 405.193 239.958 425.84C191.129 465.185 142.961 503.997 177.98 541.736C211.125 577.456 287.962 583.157 366.873 589.011C432.971 593.915 500.524 598.927 545.072 621.78C585.253 642.391 593.707 673.568 602.223 704.972C610.071 733.915 617.971 763.051 650.809 784.285C726.13 832.992 834.237 864.214 945.936 880.999C961.384 883.32 977.418 885.892 993.838 888.527C1110.35 907.22 1246.27 929.025 1329.69 886.301C1387.23 856.83 1381.28 810.479 1375.21 763.293C1369.82 721.352 1364.35 678.751 1403.3 646.757C1437.93 618.31 1506.32 609.383 1573.45 600.62C1647.95 590.896 1720.9 581.373 1744.48 545.606C1778.53 493.954 1704 442.494 1636.07 395.594C1619.95 384.466 1604.2 373.595 1590.37 363.039C1563.78 342.753 1523.89 329.337 1484.29 316.021C1437.54 300.298 1391.21 284.716 1367.69 258.132C1341.69 228.74 1347.67 190.578 1353.46 153.585C1361.13 104.631 1368.48 57.7232 1300.98 35.8881C1238.54 15.6845 1176.55 43.5395 1111.5 72.7683Z" fill="#AA706A"/>
</svg>
