<svg width="100" height="75" viewBox="0 0 100 75" fill="none" xmlns="http://www.w3.org/2000/svg">
<rect y="75" width="75" height="100" rx="8" transform="rotate(-90 0 75)" fill="#519188"/>
<path d="M50.3643 16C53.3428 16 56.1992 16.5371 58.9336 17.6113C61.668 18.6855 64.1338 20.248 66.3311 22.2988C68.5609 24.3822 70.278 26.7015 71.4824 29.2568C72.6868 31.8122 73.4274 34.6117 73.7041 37.6553V37.7285C73.7041 37.7448 73.7122 37.7773 73.7285 37.8262C73.7285 38.0215 73.696 38.2087 73.6309 38.3877C73.5658 38.5667 73.46 38.7376 73.3135 38.9004C73.167 39.0632 73.0042 39.1771 72.8252 39.2422C72.6462 39.3073 72.459 39.3561 72.2637 39.3887C72.166 39.3887 72.0521 39.3805 71.9219 39.3643C71.7917 39.348 71.6696 39.3154 71.5557 39.2666C71.4255 39.2015 71.3115 39.1364 71.2139 39.0713C71.1162 39.0062 71.0186 38.9085 70.9209 38.7783C70.2536 37.9971 69.5293 37.3949 68.748 36.9717C67.9668 36.5485 67.0472 36.3288 65.9893 36.3125C64.9964 36.3125 64.0605 36.5322 63.1816 36.9717C62.3027 37.4111 61.5703 38.0378 60.9844 38.8516C60.8379 39.0469 60.7158 39.2422 60.6182 39.4375C60.5205 39.6328 60.4066 39.8444 60.2764 40.0723C60.1299 40.349 59.9346 40.5687 59.6904 40.7314C59.4463 40.8942 59.1615 40.9837 58.8359 41H57.5176C57.1921 41 56.9072 40.9186 56.6631 40.7559C56.4189 40.5931 56.2236 40.3652 56.0771 40.0723C55.833 39.6165 55.5807 39.2015 55.3203 38.8271C55.0599 38.4528 54.7588 38.1191 54.417 37.8262C54.0752 37.5332 53.709 37.2728 53.3184 37.0449C52.9277 36.8171 52.4639 36.638 51.9268 36.5078V53.5C51.9268 54.3464 51.764 55.1439 51.4385 55.8926C51.113 56.6413 50.6572 57.3086 50.0713 57.8945C49.4854 58.4805 48.8262 58.9281 48.0938 59.2373C47.3613 59.5465 46.5557 59.7174 45.6768 59.75C44.8304 59.75 44.0329 59.5872 43.2842 59.2617C42.5355 58.9362 41.8682 58.4805 41.2822 57.8945C40.6963 57.3086 40.2487 56.6494 39.9395 55.917C39.6302 55.1846 39.4593 54.3789 39.4268 53.5V52.5234C39.4268 52.1654 39.4593 51.8236 39.5244 51.498C39.5895 51.1725 39.736 50.904 39.9639 50.6924C40.1917 50.4808 40.5335 50.375 40.9893 50.375C41.445 50.375 41.7786 50.4808 41.9902 50.6924C42.2018 50.904 42.3564 51.1644 42.4541 51.4736C42.5518 51.7829 42.5924 52.1247 42.5762 52.499C42.5599 52.8734 42.5518 53.207 42.5518 53.5C42.5518 53.9232 42.6331 54.3219 42.7959 54.6963C42.9587 55.0706 43.1865 55.3962 43.4795 55.6729C43.7725 55.9495 44.1061 56.1774 44.4805 56.3564C44.8548 56.5355 45.2536 56.625 45.6768 56.625C46.0837 56.625 46.4743 56.5436 46.8486 56.3809C47.223 56.2181 47.5566 55.9902 47.8496 55.6973C48.1426 55.4043 48.3704 55.0706 48.5332 54.6963C48.696 54.3219 48.7855 53.9232 48.8018 53.5V36.5078C48.2809 36.6543 47.8171 36.8333 47.4102 37.0449C47.0033 37.2565 46.637 37.5088 46.3115 37.8018C45.986 38.0947 45.693 38.4365 45.4326 38.8271C45.1722 39.2178 44.9118 39.6328 44.6514 40.0723C44.5049 40.349 44.3096 40.5687 44.0654 40.7314C43.8213 40.8942 43.5365 40.9837 43.2109 41H41.8926C41.5671 41 41.2822 40.9186 41.0381 40.7559C40.7939 40.5931 40.5986 40.3652 40.4521 40.0723C40.3382 39.8607 40.2324 39.6572 40.1348 39.4619C40.0371 39.2666 39.9069 39.0632 39.7441 38.8516C39.1582 38.054 38.4258 37.4355 37.5469 36.9961C36.668 36.5566 35.7321 36.3288 34.7393 36.3125C33.665 36.3125 32.7454 36.5241 31.9805 36.9473C31.2155 37.3704 30.4912 37.9808 29.8076 38.7783C29.6286 38.9736 29.4495 39.1201 29.2705 39.2178C29.0915 39.3154 28.8555 39.3724 28.5625 39.3887C28.1393 39.3887 27.7731 39.234 27.4639 38.9248C27.1546 38.6156 27 38.2412 27 37.8018V37.7041C27.179 35.6696 27.5859 33.7165 28.2207 31.8447C28.8555 29.973 29.7018 28.2396 30.7598 26.6445C31.8177 25.0495 33.0384 23.5928 34.4219 22.2744C35.8053 20.9561 37.3434 19.833 39.0361 18.9053C40.7288 17.9775 42.5192 17.2614 44.4072 16.7568C46.2952 16.2523 48.2809 16 50.3643 16ZM65.9893 33.1875C66.6729 33.1875 67.3402 33.2607 67.9912 33.4072C68.6423 33.5537 69.2852 33.7734 69.9199 34.0664C69.3177 31.8691 68.39 29.859 67.1367 28.0361C65.8835 26.2132 64.3861 24.6344 62.6445 23.2998C60.903 21.9652 58.9987 20.9398 56.9316 20.2236C54.8646 19.5075 52.6755 19.1413 50.3643 19.125C48.0856 19.125 45.8965 19.4912 43.7969 20.2236C41.6973 20.9561 39.7848 21.9814 38.0596 23.2998C36.3343 24.6182 34.8451 26.1888 33.5918 28.0117C32.3385 29.8346 31.4108 31.8529 30.8086 34.0664C31.4271 33.7734 32.0618 33.5537 32.7129 33.4072C33.3639 33.2607 34.0394 33.1875 34.7393 33.1875C36.318 33.1875 37.791 33.5537 39.1582 34.2861C40.5254 35.0186 41.6566 36.0521 42.5518 37.3867C43.4307 36.0684 44.5537 35.043 45.9209 34.3105C47.2881 33.5781 48.7692 33.2038 50.3643 33.1875C51.943 33.1875 53.416 33.5537 54.7832 34.2861C56.1504 35.0186 57.2816 36.0521 58.1768 37.3867C59.0557 36.0684 60.1787 35.043 61.5459 34.3105C62.9131 33.5781 64.3942 33.2038 65.9893 33.1875Z" fill="#F4DBC9"/>
</svg>
