<svg width="100" height="75" viewBox="0 0 100 75" fill="none" xmlns="http://www.w3.org/2000/svg">
<rect y="75" width="75" height="100" rx="8" transform="rotate(-90 0 75)" fill="#519188"/>
<path d="M49.5 45.9375C54.1694 45.9375 57.9545 42.16 57.9545 37.5V23.4375C57.9545 18.7775 54.1694 15 49.5 15C44.8306 15 41.0455 18.7775 41.0455 23.4375V37.5C41.0455 42.16 44.8306 45.9375 49.5 45.9375ZM63.5909 31.875H62.1818C61.4033 31.875 60.7727 32.5043 60.7727 33.2812V37.5C60.7727 44.0742 55.0932 49.3494 48.3736 48.6955C42.5171 48.1251 38.2273 42.871 38.2273 36.999V33.2812C38.2273 32.5043 37.5967 31.875 36.8182 31.875H35.4091C34.6306 31.875 34 32.5043 34 33.2812V36.8109C34 44.6895 39.6337 51.7128 47.3864 52.7798V55.7812H42.4545C41.676 55.7812 41.0455 56.4105 41.0455 57.1875V58.5938C41.0455 59.3707 41.676 60 42.4545 60H56.5455C57.324 60 57.9545 59.3707 57.9545 58.5938V57.1875C57.9545 56.4105 57.324 55.7812 56.5455 55.7812H51.6136V52.8132C59.162 51.7796 65 45.3135 65 37.5V33.2812C65 32.5043 64.3694 31.875 63.5909 31.875Z" fill="#F4DBC9"/>
</svg>
