<svg width="100" height="75" viewBox="0 0 100 75" fill="none" xmlns="http://www.w3.org/2000/svg">
<rect y="75" width="75" height="100" rx="8" transform="rotate(-90 0 75)" fill="#519188"/>
<path d="M59.0169 29.5705C59.0169 30.1269 58.8516 30.6709 58.5418 31.1335C58.232 31.5961 57.7916 31.9567 57.2764 32.1697C56.7612 32.3826 56.1943 32.4383 55.6473 32.3298C55.1004 32.2212 54.598 31.9533 54.2037 31.5598C53.8094 31.1664 53.5408 30.6651 53.432 30.1194C53.3232 29.5737 53.3791 29.008 53.5925 28.4939C53.8059 27.9799 54.1673 27.5405 54.631 27.2314C55.0946 26.9222 55.6398 26.7573 56.1974 26.7573C56.9452 26.7573 57.6624 27.0537 58.1911 27.5812C58.7199 28.1088 59.0169 28.8244 59.0169 29.5705ZM71 30.9772C70.9998 31.324 70.9145 31.6655 70.7517 31.972C70.589 32.2785 70.3536 32.5406 70.066 32.7355L66.7707 34.9158V38.0104C66.766 43.0453 64.7594 47.8727 61.1912 51.4329C57.6231 54.9932 52.7849 56.9953 47.7388 57H30.1166C29.7211 56.9991 29.3337 56.8884 28.9976 56.6804C28.6615 56.4723 28.39 56.1751 28.2135 55.8219C28.0408 55.4681 27.9707 55.0731 28.0112 54.6816C28.0517 54.2901 28.2011 53.9177 28.4425 53.6065L44.2144 33.0695V30.2739C44.2094 27.6055 45.155 25.0222 46.8822 22.9851C48.6095 20.9479 51.006 19.5895 53.6442 19.1522C56.2823 18.7149 58.9904 19.2272 61.285 20.5976C63.5796 21.9681 65.3115 24.1076 66.1715 26.6342L70.066 29.2189C70.3536 29.4138 70.589 29.6759 70.7517 29.9824C70.9145 30.2888 70.9998 30.6303 71 30.9772V30.9772ZM65.079 30.9772L63.1934 29.7288C62.7597 29.4389 62.4465 29.0014 62.3123 28.498C61.879 26.8437 60.8565 25.4036 59.4362 24.447C58.0159 23.4904 56.2949 23.0828 54.5953 23.3005C52.8956 23.5181 51.3336 24.3461 50.2014 25.6296C49.0692 26.913 48.4443 28.564 48.4437 30.2739V33.7905C48.4399 34.2546 48.2853 34.705 48.0031 35.074L34.3988 52.7801H47.7388C51.6632 52.7754 55.4256 51.2178 58.2006 48.449C60.9757 45.6801 62.5367 41.9261 62.5414 38.0104V33.7905C62.5416 33.4436 62.6268 33.1021 62.7896 32.7956C62.9524 32.4892 63.1878 32.2271 63.4753 32.0322L65.079 30.9772ZM50.6641 39.1533C50.4449 38.9829 50.1941 38.8576 49.9261 38.7848C49.658 38.712 49.3782 38.693 49.1027 38.729C48.8273 38.765 48.5618 38.8552 48.3216 38.9945C48.0814 39.1337 47.8713 39.3192 47.7035 39.5401L42.2935 46.5733C41.9552 47.0188 41.8078 47.5801 41.8838 48.1339C41.9598 48.6877 42.2529 49.1889 42.6989 49.5272C43.0641 49.8172 43.5185 49.9725 43.9853 49.9668C44.3093 49.9675 44.6292 49.8932 44.9196 49.7498C45.2101 49.6065 45.4633 49.3979 45.6594 49.1404L51.0694 42.1072C51.4078 41.6617 51.5551 41.1004 51.4791 40.5466C51.4032 39.9927 51.11 39.4916 50.6641 39.1533V39.1533Z" fill="#F4DBC9"/>
</svg>
