<svg width="100" height="75" viewBox="0 0 100 75" fill="none" xmlns="http://www.w3.org/2000/svg">
<rect y="75" width="75" height="100" rx="8" transform="rotate(-90 0 75)" fill="#519188"/>
<path d="M56.0417 30.4583C54.4167 30.0375 52.1542 29.4167 50.3437 29.4167C41.4083 29.4167 34.1667 34.975 34.1667 41.8292C34.1667 45.7688 36.5583 49.2813 40.2875 51.5542L39.2771 54.8875C39.2205 55.0742 39.2084 55.2716 39.2418 55.4639C39.2752 55.6561 39.3531 55.8379 39.4693 55.9946C39.5856 56.1513 39.7369 56.2787 39.9111 56.3664C40.0854 56.4542 40.2778 56.4999 40.4729 56.5H44.1479C44.4184 56.5 44.6815 56.4123 44.8979 56.25L47.8042 54.0688H52.8812L55.7875 56.25C56.0039 56.4123 56.267 56.5 56.5375 56.5H60.2125C60.4076 56.4999 60.6 56.4542 60.7743 56.3664C60.9485 56.2787 61.0998 56.1513 61.2161 55.9946C61.3323 55.8379 61.4102 55.6561 61.4436 55.4639C61.477 55.2716 61.4649 55.0742 61.4083 54.8875L60.3979 51.5542C62.6208 50.2 64.3667 48.4063 65.4167 46.3438M56.0417 30.4583L65.4167 27.3333L65.2417 34.8917L69.5833 36.7083V44L65.5708 46.0833" stroke="#F4DBC9" stroke-width="3.125" stroke-linecap="round" stroke-linejoin="round"/>
<path d="M58.125 39.8333C57.8487 39.8333 57.5838 39.7236 57.3884 39.5282C57.1931 39.3329 57.0833 39.0679 57.0833 38.7917C57.0833 38.5154 57.1931 38.2504 57.3884 38.0551C57.5838 37.8597 57.8487 37.75 58.125 37.75C58.4013 37.75 58.6662 37.8597 58.8616 38.0551C59.0569 38.2504 59.1667 38.5154 59.1667 38.7917C59.1667 39.0679 59.0569 39.3329 58.8616 39.5282C58.6662 39.7236 58.4013 39.8333 58.125 39.8333Z" fill="#F4DBC9" stroke="#F4DBC9" stroke-width="3.125" stroke-linecap="round" stroke-linejoin="round"/>
<path d="M30 33.5833C30 33.5833 30 38.5833 34.1667 39.8333" stroke="#F4DBC9" stroke-width="3.125" stroke-linecap="round" stroke-linejoin="round"/>
<path d="M52.5 28.9021C52.7708 28.1271 52.9167 27.2937 52.9167 26.4271C52.9167 22.325 49.6521 19 45.625 19C41.5979 19 38.3333 22.325 38.3333 26.4271C38.3333 28.3875 39.0792 30.1729 40.3 31.5" stroke="#F4DBC9" stroke-width="3.125" stroke-linejoin="round"/>
</svg>
