<svg width="100" height="75" viewBox="0 0 100 75" fill="none" xmlns="http://www.w3.org/2000/svg">
<rect y="75" width="75" height="100" rx="8" transform="rotate(-90 0 75)" fill="#519188"/>
<path d="M64.4167 32.4167H63.75L61.1458 25.9167C60.6807 24.761 59.8809 23.7706 58.8489 23.0727C57.8169 22.3749 56.6 22.0013 55.3542 22H42.8542C41.4069 21.9959 40.003 22.4942 38.8821 23.4098C37.7613 24.3255 36.993 25.6018 36.7083 27.0209L35.625 32.4167H35.25C33.5924 32.4167 32.0027 33.0752 30.8306 34.2473C29.6585 35.4194 29 37.0091 29 38.6667V44.9167C29 45.4692 29.2195 45.9991 29.6102 46.3898C30.0009 46.7805 30.5308 47 31.0833 47H33.1667C33.1667 48.6576 33.8251 50.2473 34.9972 51.4194C36.1694 52.5915 37.7591 53.25 39.4167 53.25C41.0743 53.25 42.664 52.5915 43.8361 51.4194C45.0082 50.2473 45.6667 48.6576 45.6667 47H54C54 48.6576 54.6585 50.2473 55.8306 51.4194C57.0027 52.5915 58.5924 53.25 60.25 53.25C61.9076 53.25 63.4973 52.5915 64.6694 51.4194C65.8415 50.2473 66.5 48.6576 66.5 47H68.5833C69.1359 47 69.6658 46.7805 70.0565 46.3898C70.4472 45.9991 70.6667 45.4692 70.6667 44.9167V38.6667C70.6667 37.0091 70.0082 35.4194 68.8361 34.2473C67.664 33.0752 66.0743 32.4167 64.4167 32.4167V32.4167ZM51.9167 26.1667H55.3542C55.7679 26.1704 56.1711 26.2973 56.5124 26.531C56.8538 26.7648 57.1178 27.0948 57.2708 27.4792L59.25 32.4167H51.9167V26.1667ZM40.7917 27.8334C40.8891 27.3557 41.1509 26.9273 41.5315 26.6228C41.9122 26.3183 42.3876 26.1569 42.875 26.1667H47.75V32.4167H39.875L40.7917 27.8334ZM39.4167 49.0834C39.0046 49.0834 38.6018 48.9612 38.2592 48.7323C37.9166 48.5033 37.6496 48.178 37.4919 47.7973C37.3342 47.4166 37.293 46.9977 37.3734 46.5936C37.4537 46.1895 37.6522 45.8182 37.9435 45.5269C38.2349 45.2355 38.6061 45.0371 39.0102 44.9567C39.4144 44.8763 39.8332 44.9176 40.2139 45.0753C40.5946 45.233 40.92 45.5 41.1489 45.8426C41.3778 46.1852 41.5 46.588 41.5 47C41.5 47.5526 41.2805 48.0825 40.8898 48.4732C40.4991 48.8639 39.9692 49.0834 39.4167 49.0834ZM60.25 49.0834C59.838 49.0834 59.4352 48.9612 59.0926 48.7323C58.75 48.5033 58.4829 48.178 58.3252 47.7973C58.1676 47.4166 58.1263 46.9977 58.2067 46.5936C58.2871 46.1895 58.4855 45.8182 58.7769 45.5269C59.0682 45.2355 59.4394 45.0371 59.8436 44.9567C60.2477 44.8763 60.6666 44.9176 61.0473 45.0753C61.4279 45.233 61.7533 45.5 61.9822 45.8426C62.2111 46.1852 62.3333 46.588 62.3333 47C62.3333 47.5526 62.1138 48.0825 61.7231 48.4732C61.3324 48.8639 60.8025 49.0834 60.25 49.0834ZM66.5 42.8334H64.875C64.2892 42.1889 63.5752 41.6739 62.7787 41.3216C61.9822 40.9692 61.1209 40.7872 60.25 40.7872C59.3791 40.7872 58.5177 40.9692 57.7213 41.3216C56.9248 41.6739 56.2108 42.1889 55.625 42.8334H44.0417C43.4559 42.1889 42.7418 41.6739 41.9454 41.3216C41.1489 40.9692 40.2876 40.7872 39.4167 40.7872C38.5457 40.7872 37.6844 40.9692 36.888 41.3216C36.0915 41.6739 35.3775 42.1889 34.7917 42.8334H33.1667V38.6667C33.1667 38.1142 33.3862 37.5843 33.7769 37.1936C34.1676 36.8029 34.6975 36.5834 35.25 36.5834H64.4167C64.9692 36.5834 65.4991 36.8029 65.8898 37.1936C66.2805 37.5843 66.5 38.1142 66.5 38.6667V42.8334Z" fill="#F4DBC9"/>
</svg>
