<svg width="100" height="75" viewBox="0 0 100 75" fill="none" xmlns="http://www.w3.org/2000/svg">
<rect y="75" width="75" height="100" rx="8" transform="rotate(-90 0 75)" fill="#519188"/>
<path d="M61.8333 53.1406L58.0833 36.0573L65.375 28.7656C68.5 25.6406 69.5417 21.474 68.5 19.3906C66.4167 18.349 62.25 19.3906 59.125 22.5156L51.8333 29.8073L34.75 26.0573C33.7083 25.849 32.875 26.2656 32.4583 27.099L31.8333 28.1406C31.4167 29.1823 31.625 30.224 32.4583 30.849L43.5 38.1406L39.3333 44.3906H33.0833L31 46.474L37.25 50.6406L41.4167 56.8906L43.5 54.8073V48.5573L49.75 44.3906L57.0417 55.4323C57.6667 56.2656 58.7083 56.474 59.75 56.0573L60.7917 55.6406C61.625 55.0156 62.0417 54.1823 61.8333 53.1406V53.1406Z" stroke="#F4DBC9" stroke-width="3" stroke-linecap="round" stroke-linejoin="round"/>
</svg>
