<svg width="100" height="75" viewBox="0 0 100 75" fill="none" xmlns="http://www.w3.org/2000/svg">
<rect y="75" width="75" height="100" rx="8" transform="rotate(-90 0 75)" fill="#519188"/>
<path d="M42.4583 23.2083L40.375 18C38.1177 18.8677 33.2917 24.0417 34.125 31.5417M57.0417 23.2083L59.125 18C61.3823 18.8677 66.2083 24.0417 65.375 31.5417" stroke="#F4DBC9" stroke-width="3" stroke-linecap="round" stroke-linejoin="round"/>
<path d="M68.5 42.4792C68.5 52.5469 60.1052 57.5833 49.75 57.5833C39.3948 57.5833 31 52.5469 31 42.4792C31 32.4115 39.3948 22.1667 49.75 22.1667C60.1052 22.1667 68.5 32.4115 68.5 42.4792Z" stroke="#F4DBC9" stroke-width="3"/>
<path d="M45.5833 32.5833C46.7339 32.5833 47.6667 31.6506 47.6667 30.5C47.6667 29.3494 46.7339 28.4167 45.5833 28.4167C44.4327 28.4167 43.5 29.3494 43.5 30.5C43.5 31.6506 44.4327 32.5833 45.5833 32.5833Z" fill="#F4DBC9"/>
<path d="M53.9167 32.5833C55.0673 32.5833 56 31.6506 56 30.5C56 29.3494 55.0673 28.4167 53.9167 28.4167C52.7661 28.4167 51.8333 29.3494 51.8333 30.5C51.8333 31.6506 52.7661 32.5833 53.9167 32.5833Z" fill="#F4DBC9"/>
<path d="M49.75 39.875C49.75 41.601 50.2708 45.6042 46.625 45.6042C45.7962 45.6042 45.0013 45.2749 44.4153 44.6889C43.8292 44.1028 43.5 43.308 43.5 42.4792" stroke="#F4DBC9" stroke-width="3" stroke-linecap="round" stroke-linejoin="round"/>
<path d="M49.776 39.875C49.776 41.601 49.2552 45.6042 52.901 45.6042C53.7298 45.6042 54.5247 45.2749 55.1107 44.6889C55.6968 44.1028 56.026 43.308 56.026 42.4792" stroke="#F4DBC9" stroke-width="3" stroke-linecap="round" stroke-linejoin="round"/>
<path d="M51.8333 39.6146C51.8333 40.3333 49.75 41.4375 49.75 41.4375C49.75 41.4375 47.6667 40.3333 47.6667 39.6146C47.6667 38.8958 48.1875 38.3125 49.75 38.3125C51.3125 38.3125 51.8333 38.8958 51.8333 39.6146Z" stroke="#F4DBC9" stroke-width="3" stroke-linejoin="round"/>
</svg>
