<svg width="100" height="75" viewBox="0 0 100 75" fill="none" xmlns="http://www.w3.org/2000/svg">
<rect y="75" width="75" height="100" rx="8" transform="rotate(-90 0 75)" fill="#519188"/>
<path d="M44.294 17.7003C44.7863 16.5984 45.5872 15.6627 46.5998 15.006C47.6124 14.3494 48.7934 14 50.0003 14C51.2071 14 52.3881 14.3494 53.4007 15.006C54.4133 15.6627 55.2142 16.5984 55.7065 17.7003C56.6838 16.9909 57.8456 16.5799 59.0516 16.5169C60.2575 16.4539 61.4559 16.7416 62.5018 17.3452C63.5476 17.9488 64.3963 18.8425 64.9451 19.9181C65.4938 20.9938 65.7192 22.2054 65.594 23.4065C66.7951 23.2813 68.0067 23.5067 69.0824 24.0555C70.158 24.6042 71.0517 25.4529 71.6553 26.4988C72.2589 27.5446 72.5466 28.743 72.4836 29.9489C72.4206 31.1549 72.0096 32.3167 71.3003 33.294C72.4021 33.7863 73.3379 34.5872 73.9945 35.5998C74.6511 36.6124 75.0005 37.7934 75.0005 39.0003C75.0005 40.2071 74.6511 41.3881 73.9945 42.4007C73.3379 43.4133 72.4021 44.2142 71.3003 44.7065C72.0096 45.6838 72.4206 46.8456 72.4836 48.0516C72.5466 49.2575 72.2589 50.4559 71.6553 51.5018C71.0517 52.5476 70.158 53.3963 69.0824 53.9451C68.0067 54.4938 66.7951 54.7192 65.594 54.594C65.7192 55.7951 65.4938 57.0067 64.9451 58.0824C64.3963 59.158 63.5476 60.0517 62.5018 60.6553C61.4559 61.2589 60.2575 61.5466 59.0516 61.4836C57.8456 61.4206 56.6838 61.0096 55.7065 60.3003C55.2142 61.4021 54.4133 62.3379 53.4007 62.9945C52.3881 63.6511 51.2071 64.0005 50.0003 64.0005C48.7934 64.0005 47.6124 63.6511 46.5998 62.9945C45.5872 62.3379 44.7863 61.4021 44.294 60.3003C43.3167 61.0096 42.1549 61.4206 40.9489 61.4836C39.743 61.5466 38.5446 61.2589 37.4988 60.6553C36.4529 60.0517 35.6042 59.158 35.0555 58.0824C34.5067 57.0067 34.2813 55.7951 34.4065 54.594C33.2054 54.7192 31.9938 54.4938 30.9181 53.9451C29.8425 53.3963 28.9488 52.5476 28.3452 51.5018C27.7416 50.4559 27.4539 49.2575 27.5169 48.0516C27.5799 46.8456 27.9909 45.6838 28.7003 44.7065C27.5984 44.2142 26.6627 43.4133 26.006 42.4007C25.3494 41.3881 25 40.2071 25 39.0003C25 37.7934 25.3494 36.6124 26.006 35.5998C26.6627 34.5872 27.5984 33.7863 28.7003 33.294C27.9909 32.3167 27.5799 31.1549 27.5169 29.9489C27.4539 28.743 27.7416 27.5446 28.3452 26.4988C28.9488 25.4529 29.8425 24.6042 30.9181 24.0555C31.9938 23.5067 33.2054 23.2813 34.4065 23.4065C34.2813 22.2054 34.5067 20.9938 35.0555 19.9181C35.6042 18.8425 36.4529 17.9488 37.4988 17.3452C38.5446 16.7416 39.743 16.4539 40.9489 16.5169C42.1549 16.5799 43.3167 16.9909 44.294 17.7003V17.7003ZM50.0003 17.1253C49.5824 17.1259 49.1689 17.2103 48.7842 17.3736C48.3996 17.5368 48.0516 17.7756 47.7608 18.0757C47.47 18.3758 47.2424 18.7311 47.0914 19.1208C46.9403 19.5104 46.869 19.9263 46.8815 20.344L46.9128 20.6284C46.9503 20.869 47.0034 21.1784 47.0815 21.5534C47.2346 22.3065 47.4628 23.2471 47.7471 24.3253C48.3159 26.4753 49.0846 29.0534 49.8596 31.5565L50.0003 32.0065L50.1409 31.5565C50.9159 29.0565 51.6846 26.4753 52.2534 24.3253C52.5378 23.2471 52.7659 22.3065 52.919 21.5534C53.0014 21.1541 53.0681 20.7517 53.119 20.3471L53.1253 20.2503C53.1253 19.4215 52.796 18.6266 52.21 18.0405C51.6239 17.4545 50.8291 17.1253 50.0003 17.1253V17.1253ZM31.2503 42.1253L31.344 42.119L31.6284 42.0878C31.9383 42.0408 32.2468 41.9845 32.5534 41.919C33.3065 41.7659 34.2471 41.5378 35.3253 41.2534C37.7494 40.5972 40.1603 39.8929 42.5565 39.1409L43.0065 39.0003L42.5565 38.8596C40.1603 38.1076 37.7494 37.4033 35.3253 36.7471C34.4075 36.5001 33.4832 36.2781 32.5534 36.0815C32.1541 35.9991 31.7517 35.9324 31.3471 35.8815L31.2503 35.8753C30.4215 35.8753 29.6266 36.2045 29.0405 36.7905C28.4545 37.3766 28.1253 38.1715 28.1253 39.0003C28.1253 39.8291 28.4545 40.6239 29.0405 41.21C29.6266 41.796 30.4215 42.1253 31.2503 42.1253V42.1253ZM53.1253 57.7503L53.119 57.6565C53.0681 57.252 53.0014 56.8496 52.919 56.4503C52.7229 55.5193 52.501 54.5939 52.2534 53.6753C51.5972 51.2511 50.8929 48.8402 50.1409 46.444L50.0003 45.994L49.8596 46.444C49.0846 48.944 48.3159 51.5253 47.7471 53.6753C47.4628 54.7534 47.2346 55.694 47.0815 56.4471C46.9991 56.8464 46.9324 57.2488 46.8815 57.6534L46.8753 57.7503C46.8753 58.5791 47.2045 59.3739 47.7905 59.96C48.3766 60.546 49.1715 60.8753 50.0003 60.8753C50.8291 60.8753 51.6239 60.546 52.21 59.96C52.796 59.3739 53.1253 58.5791 53.1253 57.7503ZM35.3253 51.0815L35.4034 51.0284C35.729 50.7825 36.0449 50.524 36.3503 50.2534C36.9253 49.7409 37.6253 49.0753 38.4159 48.2878C40.1883 46.5079 41.9251 44.6929 43.6253 42.844L43.9471 42.4971L43.4878 42.6003C41.0356 43.1477 38.5945 43.7436 36.1659 44.3878C35.0909 44.6784 34.1659 44.9503 33.4346 45.194C33.0469 45.3229 32.6643 45.4667 32.2878 45.6253L32.2034 45.669C31.8451 45.8727 31.5307 46.1452 31.2782 46.471C31.0257 46.7967 30.8401 47.1691 30.7321 47.5668C30.6241 47.9646 30.5959 48.3797 30.649 48.7884C30.7021 49.1971 30.8355 49.5912 31.0416 49.9482C31.2477 50.3051 31.5223 50.6177 31.8497 50.868C32.1771 51.1184 32.5507 51.3015 32.9492 51.4068C33.3476 51.5122 33.7629 51.5376 34.1713 51.4818C34.5796 51.426 34.9728 51.2899 35.3284 51.0815H35.3253ZM39.0628 57.944C39.7805 58.3584 40.6335 58.4707 41.434 58.2562C42.2345 58.0417 42.9171 57.518 43.3315 56.8003L43.3753 56.7159C43.4065 56.6534 43.4409 56.5659 43.4878 56.4534C43.6027 56.1618 43.709 55.8669 43.8065 55.569C44.0503 54.8409 44.3221 53.9128 44.6128 52.8378C45.2571 50.4092 45.8531 47.9681 46.4003 45.5159L46.5034 45.0565L46.1596 45.3753C44.3098 47.0756 42.4938 48.8124 40.7128 50.5846C40.0393 51.2545 39.3839 51.9422 38.7471 52.6471C38.4766 52.9537 38.2181 53.2706 37.9721 53.5971L37.919 53.6753C37.5046 54.393 37.3923 55.246 37.6068 56.0465C37.8213 56.847 38.345 57.5296 39.0628 57.944V57.944ZM67.8003 32.3315C68.5122 31.9142 69.0301 31.2322 69.241 30.4344C69.4519 29.6366 69.3387 28.7877 68.9261 28.0731C68.5135 27.3584 67.835 26.836 67.0386 26.6198C66.2422 26.4036 65.3926 26.5111 64.6753 26.919L64.5971 26.9721C64.2714 27.2179 63.9555 27.4764 63.6503 27.7471C62.9439 28.3834 62.2551 29.0388 61.5846 29.7128C59.8123 31.4927 58.0755 33.3076 56.3753 35.1565L56.0565 35.5034L56.5159 35.4003C58.9671 34.853 61.4071 34.2571 63.8346 33.6128C64.9128 33.3221 65.8409 33.0503 66.569 32.8065C66.9568 32.6778 67.3394 32.534 67.7159 32.3753C67.7444 32.3615 67.7726 32.3469 67.8003 32.3315V32.3315ZM60.9378 20.0565C60.22 19.6421 59.367 19.5298 58.5665 19.7443C57.766 19.9588 57.0834 20.4825 56.669 21.2003L56.6253 21.2846C56.594 21.3471 56.5596 21.4346 56.5128 21.5471C56.3978 21.8387 56.2915 22.1336 56.194 22.4315C55.9503 23.1596 55.6784 24.0878 55.3878 25.1659C54.7435 27.5934 54.1475 30.0334 53.6003 32.4846L53.4971 32.944L53.8409 32.6253C55.6907 30.925 57.5067 29.1882 59.2878 27.4159C60.0753 26.6253 60.7409 25.9253 61.2534 25.3534C61.524 25.047 61.7826 24.7301 62.0284 24.4034L62.0815 24.3253C62.4959 23.6075 62.6082 22.7545 62.3937 21.954C62.1792 21.1535 61.6555 20.4709 60.9378 20.0565V20.0565ZM68.7503 42.1253C69.5791 42.1253 70.3739 41.796 70.96 41.21C71.546 40.6239 71.8753 39.8291 71.8753 39.0003C71.8753 38.1715 71.546 37.3766 70.96 36.7905C70.3739 36.2045 69.5791 35.8753 68.7503 35.8753L68.6565 35.8815C68.252 35.9324 67.8496 35.9991 67.4503 36.0815C66.694 36.2346 65.7534 36.4628 64.6753 36.7471C62.5253 37.3159 59.9471 38.0846 57.444 38.8596L56.994 39.0003L57.444 39.1409C59.944 39.9159 62.5253 40.6846 64.6753 41.2534C65.7534 41.5378 66.694 41.7659 67.4471 41.919C67.8464 42.0014 68.2488 42.0681 68.6534 42.119L68.7503 42.1253ZM31.0565 28.0628C30.8478 28.425 30.7139 28.8255 30.6627 29.2405C30.6116 29.6555 30.6443 30.0765 30.7588 30.4787C30.8733 30.8808 31.0673 31.2559 31.3294 31.5816C31.5915 31.9074 31.9163 32.1773 32.2846 32.3753L32.5471 32.4846C32.7721 32.5784 33.0659 32.6846 33.4315 32.8065C34.1596 33.0503 35.0878 33.3221 36.1628 33.6128C38.5913 34.2569 41.0324 34.8528 43.4846 35.4003L43.944 35.5034L43.6221 35.1565C41.923 33.3076 40.1872 31.4926 38.4159 29.7128C37.7464 29.0389 37.0586 28.3835 36.3534 27.7471C36.047 27.4765 35.7301 27.2179 35.4034 26.9721L35.3253 26.919C34.6075 26.5046 33.7545 26.3923 32.954 26.6068C32.1535 26.8213 31.4709 27.345 31.0565 28.0628V28.0628ZM37.919 24.3253L37.9721 24.4034C38.218 24.729 38.4765 25.0449 38.7471 25.3503C39.2596 25.9253 39.9253 26.6253 40.7128 27.4159C42.4926 29.1883 44.3076 30.9251 46.1565 32.6253L46.5034 32.944L46.4003 32.4846C45.853 30.0334 45.2571 27.5934 44.6128 25.1659C44.3221 24.0878 44.0503 23.1596 43.8065 22.4315C43.6778 22.0437 43.5339 21.6611 43.3753 21.2846L43.3315 21.2003C43.1278 20.842 42.8553 20.5275 42.5295 20.275C42.2038 20.0225 41.8314 19.837 41.4337 19.729C41.0359 19.621 40.6208 19.5927 40.2121 19.6459C39.8034 19.699 39.4093 19.8324 39.0524 20.0385C38.6954 20.2446 38.3828 20.5192 38.1325 20.8466C37.8821 21.1739 37.699 21.5476 37.5937 21.946C37.4884 22.3445 37.4629 22.7598 37.5187 23.1681C37.5745 23.5765 37.7106 23.9697 37.919 24.3253V24.3253ZM68.944 49.9378C69.3584 49.22 69.4707 48.367 69.2562 47.5665C69.0417 46.766 68.518 46.0834 67.8003 45.669L67.7159 45.6253C67.3394 45.4666 66.9568 45.3227 66.569 45.194C65.8409 44.9503 64.9128 44.6784 63.8346 44.3878C61.4071 43.7435 58.9671 43.1475 56.5159 42.6003L56.0565 42.4971L56.3753 42.844C58.0755 44.6929 59.8123 46.5078 61.5846 48.2878C62.3753 49.0753 63.0753 49.7409 63.6471 50.2534C63.9534 50.5242 64.2703 50.7827 64.5971 51.0284L64.6753 51.0815C65.393 51.4959 66.246 51.6082 67.0465 51.3937C67.847 51.1792 68.5296 50.6555 68.944 49.9378ZM56.669 56.8003C57.0863 57.5122 57.7683 58.0301 58.5661 58.241C59.3639 58.4519 60.2128 58.3387 60.9274 57.9261C61.6421 57.5135 62.1645 56.835 62.3807 56.0386C62.5969 55.2422 62.4894 54.3926 62.0815 53.6753L62.0284 53.5971C61.7823 53.2716 61.5238 52.9558 61.2534 52.6503C60.6171 51.9439 59.9616 51.2551 59.2878 50.5846C57.508 48.8122 55.693 47.0754 53.844 45.3753L53.4971 45.0565L53.6003 45.5159C54.1475 47.9671 54.7434 50.4071 55.3878 52.8346C55.6784 53.9128 55.9503 54.8409 56.194 55.569C56.3227 55.9568 56.4665 56.3394 56.6253 56.7159C56.6391 56.7444 56.6537 56.7725 56.669 56.8003V56.8003ZM50.0003 43.6878C51.2435 43.6878 52.4357 43.1939 53.3148 42.3148C54.1939 41.4357 54.6878 40.2435 54.6878 39.0003C54.6878 37.7571 54.1939 36.5648 53.3148 35.6857C52.4357 34.8066 51.2435 34.3128 50.0003 34.3128C48.7571 34.3128 47.5648 34.8066 46.6857 35.6857C45.8066 36.5648 45.3128 37.7571 45.3128 39.0003C45.3128 40.2435 45.8066 41.4357 46.6857 42.3148C47.5648 43.1939 48.7571 43.6878 50.0003 43.6878V43.6878Z" fill="#F4DBC9" stroke="#519188"/>
</svg>
