<svg width="100" height="75" viewBox="0 0 100 75" fill="none" xmlns="http://www.w3.org/2000/svg">
<rect y="75" width="75" height="100" rx="8" transform="rotate(-90 0 75)" fill="#519188"/>
<path d="M35.303 36.7757C33.3326 37.2715 31.611 38.4698 30.4618 40.1454C29.3126 41.821 28.8148 43.8585 29.0619 45.8753C29.3091 47.892 30.2841 49.7491 31.8039 51.0976C33.3237 52.4461 35.2836 53.1932 37.3155 53.1986H60.2321C61.703 53.1976 63.1571 52.8851 64.4985 52.2817C65.8399 51.6782 67.0383 50.7975 68.0149 49.6975C68.9914 48.5975 69.7239 47.3032 70.1642 45.8997C70.6044 44.4962 70.7424 43.0154 70.5691 41.5548C70.3959 40.0941 69.9152 38.6867 69.1588 37.4252C68.4023 36.1637 67.3873 35.0766 66.1805 34.2357C64.9737 33.3947 63.6025 32.8189 62.1571 32.546C60.7117 32.2732 59.2249 32.3096 57.7946 32.6528L55.0238 33.407" stroke="#F4DBC9" stroke-width="4.16667" stroke-linecap="round" stroke-linejoin="round"/>
<path d="M57.7946 32.6528C57.0825 29.8332 55.325 27.3898 52.8782 25.8179C50.4314 24.2461 47.4785 23.6634 44.6181 24.188C41.7576 24.7126 39.2036 26.3053 37.4739 28.6431C35.7442 30.9809 34.9681 33.889 35.3029 36.7778C35.3029 36.7778 35.6217 38.6153 36.2738 39.657" stroke="#F4DBC9" stroke-width="4.16667" stroke-linecap="round" stroke-linejoin="round"/>
</svg>
