<svg width="100" height="75" viewBox="0 0 100 75" fill="none" xmlns="http://www.w3.org/2000/svg">
<rect y="75" width="75" height="100" rx="8" transform="rotate(-90 0 75)" fill="#519188"/>
<path fill-rule="evenodd" clip-rule="evenodd" d="M50.4395 22.5181L69.1895 41.2681V54.415C69.1895 55.6582 68.6956 56.8504 67.8165 57.7295C66.9375 58.6086 65.7452 59.1025 64.502 59.1025H36.377C35.1338 59.1025 33.9415 58.6086 33.0624 57.7295C32.1833 56.8504 31.6895 55.6582 31.6895 54.415V41.2681L50.4395 22.5181V22.5181ZM66.0645 20.04V30.9775L59.8145 24.7275V20.04C59.8145 19.6256 59.9791 19.2281 60.2721 18.9351C60.5651 18.6421 60.9626 18.4775 61.377 18.4775H64.502C64.9164 18.4775 65.3138 18.6421 65.6068 18.9351C65.8998 19.2281 66.0645 19.6256 66.0645 20.04Z" fill="#F4DBC9"/>
<path fill-rule="evenodd" clip-rule="evenodd" d="M48.2301 16.915C48.8161 16.3291 49.6108 16 50.4395 16C51.2681 16 52.0628 16.3291 52.6488 16.915L73.4207 37.6837C73.7141 37.9771 73.8789 38.375 73.8789 38.79C73.8789 39.2049 73.7141 39.6028 73.4207 39.8962C73.1273 40.1896 72.7294 40.3544 72.3145 40.3544C71.8995 40.3544 71.5016 40.1896 71.2082 39.8962L50.4395 19.1243L29.6707 39.8962C29.3773 40.1896 28.9794 40.3544 28.5645 40.3544C28.1495 40.3544 27.7516 40.1896 27.4582 39.8962C27.1648 39.6028 27 39.2049 27 38.79C27 38.375 27.1648 37.9771 27.4582 37.6837L48.2301 16.915Z" fill="#F4DBC9"/>
</svg>
