<svg width="100" height="75" viewBox="0 0 100 75" fill="none" xmlns="http://www.w3.org/2000/svg">
<rect y="75" width="75" height="100" rx="8" transform="rotate(-90 0 75)" fill="#519188"/>
<path d="M43.625 53.1719C43.625 56.625 40.125 59.4219 35.8125 59.4219C31.5 59.4219 28 56.625 28 53.1719C28 49.7219 31.5 46.9219 35.8125 46.9219C40.125 46.9219 43.625 49.7219 43.625 53.1719ZM71.75 46.9219C71.75 50.375 68.25 53.1719 63.9375 53.1719C59.625 53.1719 56.125 50.375 56.125 46.9219C56.125 43.4688 59.625 40.6719 63.9375 40.6719C68.25 40.6719 71.75 43.4688 71.75 46.9219Z" fill="#F4DBC9"/>
<path fill-rule="evenodd" clip-rule="evenodd" d="M68.625 46.9219V18.7969H71.75V46.9219H68.625ZM43.625 21.9219V53.1719H40.5V21.9219H43.625Z" fill="#F4DBC9"/>
<path d="M40.5 21.625C40.5 20.8503 40.7877 20.1032 41.3074 19.5287C41.8271 18.9542 42.5417 18.5931 43.3125 18.5157L68.3125 16.0157C68.747 15.972 69.1859 16.0199 69.6008 16.1563C70.0157 16.2926 70.3974 16.5145 70.7213 16.8075C71.0452 17.1004 71.3041 17.458 71.4813 17.8572C71.6585 18.2564 71.75 18.6883 71.75 19.125V21.9219L40.5 25.0469V21.625Z" fill="#F4DBC9"/>
</svg>
