<svg width="100" height="75" viewBox="0 0 100 75" fill="none" xmlns="http://www.w3.org/2000/svg">
<rect y="75" width="75" height="100" rx="8" transform="rotate(-90 0 75)" fill="#519188"/>
<path d="M66.5 18H33.1667C32.0616 18 31.0018 18.439 30.2204 19.2204C29.439 20.0018 29 21.0616 29 22.1667V47.1667C29 48.2717 29.439 49.3315 30.2204 50.1129C31.0018 50.8943 32.0616 51.3333 33.1667 51.3333H45.6667V55.5H39.4167V59.6667H60.25V55.5H54V51.3333H66.5C67.6051 51.3333 68.6649 50.8943 69.4463 50.1129C70.2277 49.3315 70.6667 48.2717 70.6667 47.1667V22.1667C70.6667 21.0616 70.2277 20.0018 69.4463 19.2204C68.6649 18.439 67.6051 18 66.5 18ZM66.5 47.1667H33.1667V22.1667H66.5V47.1667Z" fill="#F4DBC9"/>
</svg>
